<?xml version="1.0" encoding="UTF-8"?>
<svg version="1.1" xmlns="http://www.w3.org/2000/svg" width="1024" height="1024">
<path d="M0 0 C337.92 0 675.84 0 1024 0 C1024 337.92 1024 675.84 1024 1024 C686.08 1024 348.16 1024 0 1024 C0 686.08 0 348.16 0 0 Z " fill="#292929" transform="translate(0,0)"/>
<path d="M0 0 C33.66 0 67.32 0 102 0 C102 33.33 102 66.66 102 101 C79.56 101 57.12 101 34 101 C34.61875 110.61125 35.2375 120.2225 35.875 130.125 C36.91587478 163.11609305 36.91587478 163.11609305 25.41323853 175.88677979 C19.81207126 181.51677641 13.5710549 186.46952814 6.98095703 190.8894043 C3.84723255 192.84073497 3.84723255 192.84073497 2 196 C1.34 196 0.68 196 0 196 C0 154.09 0 112.18 0 69 C23.1 69 46.2 69 70 69 C70 57.12 70 45.24 70 33 C46.9 33 23.8 33 0 33 C0 22.11 0 11.22 0 0 Z " fill="#FDFDFD" transform="translate(135,427)"/>
<path d="M0 0 C11.22 0 22.44 0 34 0 C34 55.11 34 110.22 34 167 C-0.32 167 -34.64 167 -70 167 C-70 156.44 -70 145.88 -70 135 C-46.9 135 -23.8 135 0 135 C0 90.45 0 45.9 0 0 Z " fill="#FDFDFD" transform="translate(273,427)"/>
<path d="M0 0 C2.88937081 2.13502558 5.48642746 4.43601196 8 7 C8.33 4.03 8.66 1.06 9 -2 C14.94 -2 20.88 -2 27 -2 C27.06793677 8.14487643 27.12290876 18.2896003 27.15543652 28.43465328 C27.17105285 33.14605642 27.19221703 37.85729504 27.22631836 42.56860352 C27.25905618 47.12032742 27.2768833 51.67189366 27.28463173 56.22372627 C27.29014945 57.95515993 27.30092392 59.68658554 27.31719017 61.41795158 C27.43080821 74.01930036 26.85653142 85.12012987 18 95 C8.50564599 102.411409 -1.42976881 104.56972533 -13.25 104.5 C-14.35593506 104.49500488 -15.46187012 104.49000977 -16.60131836 104.48486328 C-28.69766304 104.22664172 -37.79509145 101.09253289 -47 93 C-45.49087042 88.01987239 -42.44338151 84.75740058 -39 81 C-35.6683832 81.68023731 -32.94928951 82.93732188 -29.9375 84.5 C-21.49680048 88.86631674 -11.59356201 89.48520694 -2.27734375 87.38671875 C1.93597631 85.54389861 4.89989327 82.61912553 7.16796875 78.63671875 C8.95160827 72.98433998 8.34298525 66.85361494 8 61 C7.25492188 61.76957031 6.50984375 62.53914062 5.7421875 63.33203125 C-0.9173393 69.81131445 -8.02965089 73.00055511 -17.375 73.3125 C-25.97332135 73.13557981 -33.12103721 70.45361732 -39.5234375 64.609375 C-48.23276058 55.50216407 -50.33423859 43.77087007 -50.14453125 31.68359375 C-49.77004495 22.13925361 -46.24904568 12.75072191 -39.81640625 5.55859375 C-28.30296525 -4.98406807 -14.07883709 -7.35746456 0 0 Z " fill="#FAFAFA" transform="translate(860,485)"/>
<path d="M0 0 C61.81756397 0 61.81756397 0 72.1640625 9.01953125 C79.69809887 17.14667261 81.54170476 27.16735633 81.30859375 37.9453125 C80.40223236 46.91714294 76.68777445 54.00830003 70 60 C59.49828163 68.20848599 48.79712433 68.40154294 35.9375 68.1875 C30.678125 68.125625 25.41875 68.06375 20 68 C20 80.21 20 92.42 20 105 C13.4 105 6.8 105 0 105 C0 70.35 0 35.7 0 0 Z " fill="#FBFBFB" transform="translate(357,454)"/>
<path d="M0 0 C10.74470109 -0.61443305 21.26532825 3.43605497 29.390625 10.3984375 C37.73906959 18.69534848 41.33797653 27.47101961 41.6640625 39.22265625 C41.69782367 51.12273583 37.88065692 60.62551835 29.5703125 69.19921875 C25.47044825 72.94806722 22.02700533 75.66652483 16.7265625 77.47265625 C15.79714844 77.79621094 14.86773438 78.11976563 13.91015625 78.453125 C2.69541673 82.01309447 -8.74290212 81.14298333 -19.30078125 76.03125 C-31.10711548 69.51557382 -35.41743777 60.89063966 -39.33203125 48.28515625 C-41.58009239 36.41910155 -38.92207829 25.40517497 -32.7109375 15.28515625 C-26.85693115 7.53585803 -18.18932604 2.66814531 -8.7109375 0.91015625 C-5.81017447 0.55594997 -2.90591494 0.3056654 0 0 Z " fill="#F9FAFA" transform="translate(760.7109375,480.71484375)"/>
<path d="M0 0 C0.75990234 -0.01224609 1.51980469 -0.02449219 2.30273438 -0.03710938 C10.88177708 -0.05908814 18.28735558 1.70355013 25.0625 7.1875 C32.60879743 15.02036568 32.34910935 24.72487312 32.2578125 35 C32.2549826 36.20946289 32.25215271 37.41892578 32.24923706 38.66503906 C32.23809396 42.50596248 32.21299983 46.34664775 32.1875 50.1875 C32.17746263 52.80077787 32.1683381 55.41405941 32.16015625 58.02734375 C32.13817379 64.41415345 32.10368416 70.80078642 32.0625 77.1875 C26.1225 77.1875 20.1825 77.1875 14.0625 77.1875 C13.5675 73.7225 13.5675 73.7225 13.0625 70.1875 C12.60101562 70.58582031 12.13953125 70.98414063 11.6640625 71.39453125 C3.25675715 78.22338994 -4.85320912 79.79571596 -15.59765625 79.5390625 C-22.96232758 78.76383394 -28.81246596 75.43455866 -33.9375 70.1875 C-36.53393706 65.1557413 -37.46227025 60.94302035 -37.375 55.25 C-37.36597656 54.54633301 -37.35695313 53.84266602 -37.34765625 53.11767578 C-37.12410049 46.42187022 -35.95701448 42.21397189 -31.2421875 37.48828125 C-23.81903814 31.28228796 -15.39047399 29.6302594 -5.89453125 29.8984375 C1.57915599 30.62902251 7.7617391 33.21528117 14.0625 37.1875 C14.00215068 34.95759273 13.9132725 32.7284464 13.8125 30.5 C13.76609375 29.25863281 13.7196875 28.01726562 13.671875 26.73828125 C12.98321755 22.72552724 11.90170658 21.04773774 9.0625 18.1875 C2.83413685 14.91760935 -5.2223898 15.28553755 -11.9140625 16.91015625 C-17.6491801 18.86136017 -22.2165004 21.41070032 -26.9375 25.1875 C-32.2558391 17.48507785 -32.2558391 17.48507785 -33.9375 13.1875 C-32.22329115 8.26391125 -28.33375273 6.50580612 -23.9375 4.1875 C-16.18607439 0.61331324 -8.44452426 0.00712618 0 0 Z " fill="#FAFAFA" transform="translate(518.9375,481.8125)"/>
<path d="M0 0 C6.93 0 13.86 0 21 0 C23.61890374 5.23780748 25.9367098 10.15209243 27.875 15.61328125 C28.12620605 16.30834274 28.37741211 17.00340424 28.63623047 17.7195282 C29.42875914 19.91555976 30.21453757 22.11393249 31 24.3125 C31.52558688 25.77295021 32.05162555 27.23323791 32.578125 28.69335938 C33.09376074 30.12499613 33.60938589 31.5566367 34.125 32.98828125 C34.49939209 34.0268779 34.49939209 34.0268779 34.88134766 35.0864563 C36.00351745 38.20495461 37.11265266 41.32594723 38.1953125 44.45849609 C38.54335938 45.45574707 38.89140625 46.45299805 39.25 47.48046875 C39.69085937 48.76860474 39.69085937 48.76860474 40.140625 50.08276367 C40.83923212 52.18347575 40.83923212 52.18347575 43 53 C43.13269287 52.26870377 43.26538574 51.53740753 43.40209961 50.78395081 C43.95177279 48.2245561 44.66407634 45.90984184 45.56640625 43.45678711 C45.88343506 42.58916245 46.20046387 41.72153778 46.52709961 40.82762146 C46.86878174 39.90352982 47.21046387 38.97943817 47.5625 38.02734375 C48.08952515 36.58724693 48.08952515 36.58724693 48.62719727 35.11805725 C49.74802957 32.0565989 50.87366181 28.99693654 52 25.9375 C53.12577922 22.87429416 54.25048879 19.81070831 55.37280273 16.74623108 C56.07068232 14.84117464 56.770641 12.93687827 57.47290039 11.03343201 C57.7899292 10.1689595 58.10695801 9.304487 58.43359375 8.41381836 C58.71259521 7.65612656 58.99159668 6.89843475 59.27905273 6.11778259 C59.96173937 4.11239059 60.48621027 2.05515894 61 0 C67.6 0 74.2 0 81 0 C80.20898048 3.95509758 79.34131331 6.89603925 77.8125 10.55078125 C77.36543701 11.63004883 76.91837402 12.70931641 76.45776367 13.82128906 C75.97670166 14.97338867 75.49563965 16.12548828 75 17.3125 C71.2451186 26.4056539 67.607277 35.52460677 64.1875 44.75 C61.37800406 52.32803586 58.51249653 59.86471235 55.45703125 67.34765625 C54.36909398 70.07479123 53.33038006 72.80153977 52.32421875 75.55859375 C44.57870519 96.61116775 44.57870519 96.61116775 36.1875 101.5625 C35.135625 102.036875 34.08375 102.51125 33 103 C32.01 103.495 32.01 103.495 31 104 C29.49064528 104.09540346 27.97720917 104.13073487 26.46484375 104.1328125 C25.57345703 104.13410156 24.68207031 104.13539063 23.76367188 104.13671875 C22.3647168 104.13091797 22.3647168 104.13091797 20.9375 104.125 C20.00099609 104.12886719 19.06449219 104.13273438 18.09960938 104.13671875 C16.76446289 104.13478516 16.76446289 104.13478516 15.40234375 104.1328125 C14.58241943 104.13168457 13.76249512 104.13055664 12.91772461 104.12939453 C11 104 11 104 10 103 C10.0381913 100.89360273 10.15592443 98.78841698 10.3125 96.6875 C10.39113281 95.53636719 10.46976563 94.38523437 10.55078125 93.19921875 C10.95814726 90.29806428 11.50147664 88.47715086 13 86 C13.67546875 86.09539062 14.3509375 86.19078125 15.046875 86.2890625 C15.93890625 86.39992188 16.8309375 86.51078125 17.75 86.625 C19.07257812 86.79902344 19.07257812 86.79902344 20.421875 86.9765625 C23.30580523 87.00278005 24.62554693 86.60339412 27 85 C30.37525765 80.5496319 30.37525765 80.5496319 30.68579102 75.24804688 C29.98671158 71.93706332 28.97318865 69.10199996 27.6640625 65.984375 C27.18211426 64.8281665 26.70016602 63.67195801 26.20361328 62.48071289 C25.67757805 61.23707035 25.15136946 59.99350112 24.625 58.75 C24.0839581 57.45911854 23.54343802 56.16801825 23.00341797 54.87670898 C21.6149983 51.56160493 20.21861543 48.2499249 18.81933594 44.93939209 C17.53291886 41.89440531 16.25134973 38.84737753 14.96875 35.80078125 C10.69421347 25.66358908 6.39527176 15.5370582 2.0234375 5.44140625 C1 3 1 3 0 0 Z " fill="#FBFBFB" transform="translate(557,483)"/>
<path d="M0 0 C6.6 0 13.2 0 20 0 C20 28.71 20 57.42 20 87 C35.51 87 51.02 87 67 87 C67 92.94 67 98.88 67 105 C44.89 105 22.78 105 0 105 C0 70.35 0 35.7 0 0 Z " fill="#F9F9F9" transform="translate(649,454)"/>
<path d="M0 0 C5.94 0 11.88 0 18 0 C18 35.31 18 70.62 18 107 C12.06 107 6.12 107 0 107 C0 71.69 0 36.38 0 0 Z " fill="#F9F9F9" transform="translate(450,452)"/>
<path d="M0 0 C1.21171875 -0.02578125 2.4234375 -0.0515625 3.671875 -0.078125 C8.37152409 0.35284719 11.6004947 1.73090431 15.078125 4.93359375 C15.54734375 5.51238281 16.0165625 6.09117187 16.5 6.6875 C16.97953125 7.26371094 17.4590625 7.83992188 17.953125 8.43359375 C22.50294647 14.80608467 21.75773878 21.72118591 21.25 29.25 C20.12645868 34.98181629 17.3679944 39.22559639 13.25 43.25 C7.23173256 46.93465353 1.17955946 46.9274709 -5.75 46.25 C-11.65364844 44.46776651 -15.08351729 40.00733707 -18.75 35.25 C-20.48019274 31.78961453 -20.06162518 27.93901208 -20.125 24.125 C-20.16238281 23.29484375 -20.19976563 22.4646875 -20.23828125 21.609375 C-20.32784591 15.26023544 -18.79240501 11.15746976 -14.75 6.25 C-9.93434077 1.50257435 -6.74794983 0.08541709 0 0 Z " fill="#222322" transform="translate(760.75,497.75)"/>
<path d="M0 0 C4.63673391 1.91235853 8.45862753 4.45862753 12 8 C12.5965916 12.37239929 12.5562299 16.77933688 12.625 21.1875 C12.68300781 22.40759766 12.74101563 23.62769531 12.80078125 24.88476562 C12.92499244 33.67987314 12.92499244 33.67987314 10.35058594 37.35400391 C4.33214261 42.81361199 -1.19999656 44.50556124 -9.21875 44.30078125 C-14.60516864 43.71826126 -18.24899514 42.04921092 -21.7890625 37.90625 C-26.73927932 30.86802703 -27.67563224 24.49737477 -27 16 C-25.73478833 8.94011886 -21.64436116 5.13440467 -16 1 C-11.28082926 -1.35958537 -5.10118557 -0.58652872 0 0 Z " fill="#212121" transform="translate(857,498)"/>
<path d="M0 0 C4.62 -0.0825 9.24 -0.165 14 -0.25 C16.16175781 -0.30462402 16.16175781 -0.30462402 18.3671875 -0.36035156 C25.68695332 -0.42352326 30.93349079 -0.28738872 37 4 C39.97440161 7.57398455 40.41010857 10.41248036 40.375 15 C40.38660156 16.5159375 40.38660156 16.5159375 40.3984375 18.0625 C39.79564767 22.50659759 37.92061933 25.10495342 34.75 28.1875 C27.69361032 32.83830229 20.22697334 32.24474632 12.0625 32.125 C8.081875 32.08375 4.10125 32.0425 0 32 C0 21.44 0 10.88 0 0 Z " fill="#262626" transform="translate(377,473)"/>
<path d="M0 0 C2.28371404 1.1211712 4.40276925 2.305113 6.21875 4.12109375 C6.74668803 8.79464354 6.87984087 12.82645746 4.71875 17.05859375 C-1.42184542 22.12458497 -7.94219613 22.81666398 -15.703125 22.58203125 C-19.62322327 21.99501146 -21.92361743 21.0432449 -24.65234375 18.1640625 C-27.00966279 13.89804916 -26.92432704 9.76914798 -25.78125 5.12109375 C-21.39700906 -3.63065438 -8.01691465 -2.53343511 0 0 Z " fill="#212121" transform="translate(526.78125,525.87890625)"/>
<path d="M0 0 C11.55 0 23.1 0 35 0 C35 0.66 35 1.32 35 2 C31.21913765 3.06336754 28.24557981 2.76339883 24.3984375 2.24243164 C19.77707493 1.77530898 15.1398419 1.8979213 10.5 1.9375 C8.98019531 1.94426758 8.98019531 1.94426758 7.4296875 1.95117188 C4.95306173 1.96285407 2.47656343 1.97923418 0 2 C0 1.34 0 0.68 0 0 Z " fill="#101010" transform="translate(652,559)"/>
<path d="M0 0 C8.25 0 16.5 0 25 0 C25 0.66 25 1.32 25 2 C21.58382503 2.1972935 18.16705407 2.38112295 14.75 2.5625 C13.78191406 2.61857422 12.81382812 2.67464844 11.81640625 2.73242188 C10.41455078 2.80493164 10.41455078 2.80493164 8.984375 2.87890625 C7.69611816 2.94960327 7.69611816 2.94960327 6.38183594 3.02172852 C4.07335735 3.00066921 2.20243733 2.66206871 0 2 C0 1.34 0 0.68 0 0 Z " fill="#121212" transform="translate(691,559)"/>
<path d="M0 0 C-0.33 0.99 -0.66 1.98 -1 3 C-21.98507463 6.34328358 -21.98507463 6.34328358 -27 3 C-26.44538086 2.94465088 -25.89076172 2.88930176 -25.31933594 2.83227539 C-22.7959083 2.57871893 -20.27296117 2.32065495 -17.75 2.0625 C-16.44095703 1.93198242 -16.44095703 1.93198242 -15.10546875 1.79882812 C-14.26113281 1.71181641 -13.41679687 1.62480469 -12.546875 1.53515625 C-11.77182617 1.456604 -10.99677734 1.37805176 -10.19824219 1.29711914 C-8.01027745 1.0468345 -8.01027745 1.0468345 -5.96582031 0.46655273 C-4 0 -4 0 0 0 Z " fill="#111111" transform="translate(418,520)"/>
<path d="M0 0 C0.33 0.99 0.66 1.98 1 3 C-0.21151542 4.20550294 -1.44502889 5.38892747 -2.6875 6.5625 C-3.71423828 7.55443359 -3.71423828 7.55443359 -4.76171875 8.56640625 C-7 10 -7 10 -9.76953125 9.71484375 C-10.50558594 9.47894531 -11.24164062 9.24304688 -12 9 C-12 8.34 -12 7.68 -12 7 C-11.46890625 6.74605469 -10.9378125 6.49210938 -10.390625 6.23046875 C-6.6675828 4.41650476 -3.20237785 2.6686482 0 0 Z " fill="#1A1A1A" transform="translate(600,579)"/>
<path d="M0 0 C6.6 0.33 13.2 0.66 20 1 C20 1.33 20 1.66 20 2 C19.09507812 2.09087891 19.09507812 2.09087891 18.171875 2.18359375 C16.97304688 2.30927734 16.97304688 2.30927734 15.75 2.4375 C14.96109375 2.51871094 14.1721875 2.59992187 13.359375 2.68359375 C11.0250364 2.94508765 11.0250364 2.94508765 8.90625 3.5625 C6.13240859 4.19911934 3.75451984 3.56342451 1 3 C0.67 2.01 0.34 1.02 0 0 Z " fill="#111012" transform="translate(835,589)"/>
<path d="M0 0 C0.33 0.99 0.66 1.98 1 3 C-5.435 8.94 -5.435 8.94 -12 15 C-12.66 14.67 -13.32 14.34 -14 14 C-9.38 9.38 -4.76 4.76 0 0 Z " fill="#373737" transform="translate(152,606)"/>
<path d="M0 0 C2.41696872 -0.05411124 4.83271787 -0.09372278 7.25 -0.125 C7.93191406 -0.14175781 8.61382813 -0.15851562 9.31640625 -0.17578125 C13.0608235 -0.21213482 15.82352727 -0.07944349 19 2 C12.23893038 3.27567351 6.68650564 2.48725585 0 1 C0 0.67 0 0.34 0 0 Z " fill="#161616" transform="translate(532,559)"/>
<path d="M0 0 C0.33 0 0.66 0 1 0 C1 4.29 1 8.58 1 13 C-1.64 13 -4.28 13 -7 13 C-6.38125 12.71125 -5.7625 12.4225 -5.125 12.125 C-2.86674235 11.06279958 -2.86674235 11.06279958 -1 9 C-0.53993654 6.79749008 -0.53993654 6.79749008 -0.375 4.375 C-0.26285156 3.14910156 -0.26285156 3.14910156 -0.1484375 1.8984375 C-0.09945312 1.27195312 -0.05046875 0.64546875 0 0 Z " fill="#1A1A1A" transform="translate(203,482)"/>
<path d="M0 0 C0 0.99 0 1.98 0 3 C-2.25 5.25 -2.25 5.25 -5 7 C-7.3125 6.75 -7.3125 6.75 -9 6 C-6.63672401 3.26357517 -4.36305523 2.23902035 -1 1 C-0.67 0.67 -0.34 0.34 0 0 Z " fill="#1C1D1D" transform="translate(429,513)"/>
<path d="M0 0 C0.66 0.33 1.32 0.66 2 1 C1.05016642 2.50539661 0.08988109 4.00420347 -0.875 5.5 C-1.40867187 6.3353125 -1.94234375 7.170625 -2.4921875 8.03125 C-2.98976563 8.6809375 -3.48734375 9.330625 -4 10 C-4.66 10 -5.32 10 -6 10 C-5.58578031 5.16743695 -3.53586014 3.17320782 0 0 Z " fill="#1A1A1A" transform="translate(749,501)"/>
<path d="M0 0 C0.66 0.33 1.32 0.66 2 1 C-0.31 3.64 -2.62 6.28 -5 9 C-5.33 8.01 -5.66 7.02 -6 6 C-4.02 4.02 -2.04 2.04 0 0 Z " fill="#222222" transform="translate(159,599)"/>
<path d="M0 0 C3.3 0 6.6 0 10 0 C10 0.66 10 1.32 10 2 C3.375 3.125 3.375 3.125 0 2 C0 1.34 0 0.68 0 0 Z " fill="#141414" transform="translate(378,522)"/>
<path d="M0 0 C-0.33 0.99 -0.66 1.98 -1 3 C-3.31 3 -5.62 3 -8 3 C-8 2.34 -8 1.68 -8 1 C-5.10765685 0.17361624 -3.11257569 0 0 0 Z " fill="#191919" transform="translate(418,520)"/>
<path d="M0 0 C0.66 0.33 1.32 0.66 2 1 C1 4 1 4 -0.9375 5.125 C-1.618125 5.41375 -2.29875 5.7025 -3 6 C-3.99 6.495 -3.99 6.495 -5 7 C-3.70700306 4.11562221 -2.34058637 2.12780579 0 0 Z " fill="#131313" transform="translate(839,500)"/>
</svg>
